<?xml version="1.0" encoding="UTF-8"?>
<svg width="165px" height="34px" viewBox="0 0 165 34" version="1.1" xmlns="http://www.w3.org/2000/svg" xmlns:xlink="http://www.w3.org/1999/xlink">
    <!-- Generator: Sketch 48.1 (47250) - http://www.bohemiancoding.com/sketch -->
    <title>Group 31</title>
    <desc>Created with Sketch.</desc>
    <defs>
        <polygon id="path-1" points="0.75165 15 10.77915 15 10.77915 0.67215 0.75165 0.67215"></polygon>
        <polygon id="path-3" points="15.46965 15 0.43965 15 0.43965 0.67215 15.46965 0.67215"></polygon>
        <polygon id="path-5" points="21.6915 14.6223 21.6915 1.0503 1.06365 1.0503 1.06365 14.6223"></polygon>
    </defs>
    <g id="Header" stroke="none" stroke-width="1" fill="none" fill-rule="evenodd" transform="translate(-150.000000, -21.000000)">
        <g id="Group" transform="translate(150.000000, 21.000000)">
            <g id="Page-1">
                <g id="Group-31" transform="translate(0.000000, 0.077700)">
                    <path d="M66.3078,7.58615 C66.3078,8.12615 66.4098,8.62415 66.6138,9.08015 C66.8178,9.53615 67.0923,9.93215 67.4418,10.26815 C67.7898,10.60415 68.1948,10.86515 68.6568,11.05115 C69.1188,11.23715 69.6063,11.33015 70.1238,11.33015 C70.6398,11.33015 71.1288,11.23715 71.5893,11.05115 C72.0528,10.86515 72.4608,10.60415 72.8148,10.26815 C73.1688,9.93215 73.4478,9.53615 73.6518,9.08015 C73.8543,8.62415 73.9578,8.12615 73.9578,7.58615 C73.9578,7.04615 73.8543,6.54815 73.6518,6.09215 C73.4478,5.63615 73.1688,5.24015 72.8148,4.90415 C72.4608,4.56815 72.0528,4.30715 71.5893,4.12115 C71.1288,3.93515 70.6398,3.84215 70.1238,3.84215 C69.6063,3.84215 69.1188,3.93515 68.6568,4.12115 C68.1948,4.30715 67.7898,4.56815 67.4418,4.90415 C67.0923,5.24015 66.8178,5.63615 66.6138,6.09215 C66.4098,6.54815 66.3078,7.04615 66.3078,7.58615 M62.6178,7.58615 C62.6178,6.57815 62.8038,5.63915 63.1758,4.76915 C63.5478,3.89915 64.0638,3.14015 64.7223,2.49215 C65.3838,1.84415 66.1728,1.33715 67.0893,0.97115 C68.0088,0.60515 69.0213,0.42215 70.1238,0.42215 C71.2143,0.42215 72.2223,0.60515 73.1493,0.97115 C74.0718,1.33715 74.8668,1.84415 75.5328,2.49215 C76.1988,3.14015 76.7163,3.89915 77.0883,4.76915 C77.4618,5.63915 77.6493,6.57815 77.6493,7.58615 C77.6493,8.59415 77.4618,9.53315 77.0883,10.40315 C76.7163,11.27315 76.1988,12.03215 75.5328,12.68015 C74.8668,13.32815 74.0718,13.83515 73.1493,14.20115 C72.2223,14.56715 71.2143,14.75015 70.1238,14.75015 C69.0213,14.75015 68.0088,14.56715 67.0893,14.20115 C66.1728,13.83515 65.3838,13.32815 64.7223,12.68015 C64.0638,12.03215 63.5478,11.27315 63.1758,10.40315 C62.8038,9.53315 62.6178,8.59415 62.6178,7.58615" id="Fill-2" fill="#282323"></path>
                    <path d="M83.4069,6.86615 L84.0729,6.86615 C84.7689,6.86615 85.3044,6.72215 85.6764,6.43415 C86.0484,6.14615 86.2329,5.73215 86.2329,5.19215 C86.2329,4.65215 86.0484,4.23815 85.6764,3.95015 C85.3044,3.66215 84.7689,3.51815 84.0729,3.51815 L83.4069,3.51815 L83.4069,6.86615 Z M91.1664,14.37215 L86.7729,14.37215 L83.4069,9.15215 L83.4069,14.37215 L79.8789,14.37215 L79.8789,0.80015 L85.3689,0.80015 C86.1249,0.80015 86.7849,0.91115 87.3489,1.13315 C87.9129,1.35515 88.3764,1.65815 88.7439,2.04215 C89.1099,2.42615 89.3844,2.87015 89.5719,3.37415 C89.7579,3.87815 89.8509,4.41815 89.8509,4.99415 C89.8509,6.02615 89.6019,6.86315 89.1039,7.50515 C88.6059,8.14715 87.8709,8.58215 86.8989,8.81015 L91.1664,14.37215 Z" id="Fill-4" fill="#282323"></path>
                    <polygon id="Fill-6" fill="#282323" points="100.36395 3.78785 96.16995 3.78785 96.16995 6.05585 100.12995 6.05585 100.12995 9.04385 96.16995 9.04385 96.16995 11.38385 100.36395 11.38385 100.36395 14.37185 92.64345 14.37185 92.64345 0.79985 100.36395 0.79985"></polygon>
                    <polygon id="Fill-8" fill="#282323" points="106.79025 7.1357 102.56025 0.7997 106.91625 0.7997 108.75225 4.3097 111.01875 0.7997 115.37625 0.7997 110.89275 7.1357 115.95075 14.3717 111.64875 14.3717 108.93225 9.9437 105.74625 14.3717 101.47875 14.3717"></polygon>
                    <polygon id="Fill-10" fill="#282323" points="53.36595 33.122 53.36595 19.55 56.89395 19.55 63.40995 27.848 63.40995 19.55 66.91995 19.55 66.91995 33.122 63.40995 33.122 56.89395 24.824 56.89395 33.122"></polygon>
                    <polygon id="Fill-12" fill="#282323" points="77.48595 22.53785 73.29195 22.53785 73.29195 24.80585 77.25195 24.80585 77.25195 27.79385 73.29195 27.79385 73.29195 30.13385 77.48595 30.13385 77.48595 33.12185 69.76545 33.12185 69.76545 19.54985 77.48595 19.54985"></polygon>
                    <polygon id="Fill-14" fill="#282323" points="82.2921 19.5503 84.6321 28.3163 87.5106 19.5503 90.3201 19.5503 93.1986 28.3163 95.5401 19.5503 99.2286 19.5503 95.1801 33.1223 91.5786 33.1223 88.9161 25.2563 86.2521 33.1223 82.6521 33.1223 78.6006 19.5503"></polygon>
                    <g id="Group-18" transform="translate(99.000000, 18.500000)">
                        <mask id="mask-2" fill="white">
                            <use xlink:href="#path-1"></use>
                        </mask>
                        <g id="Clip-17"></g>
                        <path d="M8.81565,4.52415 C8.43165,4.21215 8.04765,3.98115 7.66365,3.83115 C7.28115,3.68115 6.90915,3.60615 6.54765,3.60615 C6.09165,3.60615 5.71965,3.71415 5.43165,3.93015 C5.14365,4.14615 4.99965,4.42815 4.99965,4.77615 C4.99965,5.01615 5.07165,5.21415 5.21565,5.37015 C5.35815,5.52615 5.54865,5.66115 5.78415,5.77515 C6.01665,5.88915 6.28215,5.98815 6.57465,6.07215 C6.86865,6.15615 7.15965,6.24615 7.44765,6.34215 C8.59815,6.72615 9.44265,7.23915 9.97515,7.88115 C10.51065,8.52315 10.77915,9.36015 10.77915,10.39215 C10.77915,11.08815 10.66065,11.71815 10.42665,12.28215 C10.19265,12.84615 9.84915,13.32915 9.40215,13.73115 C8.95065,14.13315 8.39865,14.44515 7.74465,14.66715 C7.09065,14.88915 6.34815,15.00015 5.52315,15.00015 C3.80565,15.00015 2.21565,14.49015 0.75165,13.47015 L2.26365,10.62615 C2.79165,11.09415 3.31365,11.44215 3.82965,11.67015 C4.34565,11.89815 4.85415,12.01215 5.35815,12.01215 C5.93565,12.01215 6.36315,11.88015 6.64815,11.61615 C6.92865,11.35215 7.06965,11.05215 7.06965,10.71615 C7.06965,10.51215 7.03515,10.33515 6.96165,10.18515 C6.88965,10.03515 6.76965,9.89715 6.60015,9.77115 C6.43365,9.64515 6.21465,9.52815 5.94465,9.42015 C5.67465,9.31215 5.34615,9.19215 4.96365,9.06015 C4.50765,8.91615 4.06065,8.75715 3.62265,8.58315 C3.18465,8.40915 2.79465,8.17815 2.45265,7.89015 C2.10915,7.60215 1.83465,7.23915 1.62465,6.80115 C1.41465,6.36315 1.30965,5.80815 1.30965,5.13615 C1.30965,4.46415 1.42065,3.85515 1.64265,3.30915 C1.86315,2.76315 2.17665,2.29515 2.57865,1.90515 C2.97915,1.51515 3.47115,1.21215 4.05465,0.99615 C4.63665,0.78015 5.28765,0.67215 6.00765,0.67215 C6.67965,0.67215 7.38165,0.76515 8.11365,0.95115 C8.84565,1.13715 9.54765,1.41015 10.21965,1.77015 L8.81565,4.52415 Z" id="Fill-16" fill="#282323" mask="url(#mask-2)"></path>
                    </g>
                    <polygon id="Fill-19" fill="#006FFF" points="111.9918 33.122 111.9918 19.55 115.5198 19.55 122.0358 27.848 122.0358 19.55 125.5458 19.55 125.5458 33.122 122.0358 33.122 115.5198 24.824 115.5198 33.122"></polygon>
                    <g id="Group-23" transform="translate(127.500000, 18.500000)">
                        <mask id="mask-4" fill="white">
                            <use xlink:href="#path-3"></use>
                        </mask>
                        <g id="Clip-22"></g>
                        <path d="M4.12815,7.83615 C4.12815,8.37615 4.23015,8.87415 4.43565,9.33015 C4.63815,9.78615 4.91415,10.18215 5.26215,10.51815 C5.61015,10.85415 6.01515,11.11515 6.47715,11.30115 C6.94065,11.48715 7.42815,11.58015 7.94565,11.58015 C8.46165,11.58015 8.95065,11.48715 9.41115,11.30115 C9.87315,11.11515 10.28265,10.85415 10.63515,10.51815 C10.98915,10.18215 11.26815,9.78615 11.47215,9.33015 C11.67615,8.87415 11.77965,8.37615 11.77965,7.83615 C11.77965,7.29615 11.67615,6.79815 11.47215,6.34215 C11.26815,5.88615 10.98915,5.49015 10.63515,5.15415 C10.28265,4.81815 9.87315,4.55715 9.41115,4.37115 C8.95065,4.18515 8.46165,4.09215 7.94565,4.09215 C7.42815,4.09215 6.94065,4.18515 6.47715,4.37115 C6.01515,4.55715 5.61015,4.81815 5.26215,5.15415 C4.91415,5.49015 4.63815,5.88615 4.43565,6.34215 C4.23015,6.79815 4.12815,7.29615 4.12815,7.83615 M0.43965,7.83615 C0.43965,6.82815 0.62415,5.88915 0.99615,5.01915 C1.36815,4.14915 1.88415,3.39015 2.54415,2.74215 C3.20565,2.09415 3.99315,1.58715 4.91115,1.22115 C5.83065,0.85515 6.84165,0.67215 7.94565,0.67215 C9.03615,0.67215 10.04415,0.85515 10.96965,1.22115 C11.89215,1.58715 12.68865,2.09415 13.35315,2.74215 C14.02065,3.39015 14.53815,4.14915 14.91015,5.01915 C15.28365,5.88915 15.46965,6.82815 15.46965,7.83615 C15.46965,8.84415 15.28365,9.78315 14.91015,10.65315 C14.53815,11.52315 14.02065,12.28215 13.35315,12.93015 C12.68865,13.57815 11.89215,14.08515 10.96965,14.45115 C10.04415,14.81715 9.03615,15.00015 7.94565,15.00015 C6.84165,15.00015 5.83065,14.81715 4.91115,14.45115 C3.99315,14.08515 3.20565,13.57815 2.54415,12.93015 C1.88415,12.28215 1.36815,11.52315 0.99615,10.65315 C0.62415,9.78315 0.43965,8.84415 0.43965,7.83615" id="Fill-21" fill="#006FFF" mask="url(#mask-4)"></path>
                    </g>
                    <g id="Group-26" transform="translate(142.500000, 18.500000)">
                        <mask id="mask-6" fill="white">
                            <use xlink:href="#path-5"></use>
                        </mask>
                        <g id="Clip-25"></g>
                        <polygon id="Fill-24" fill="#006FFF" mask="url(#mask-6)" points="4.75215 1.0503 7.09365 9.8163 9.97215 1.0503 12.78165 1.0503 15.66015 9.8163 18.00015 1.0503 21.69165 1.0503 17.64015 14.6223 14.04015 14.6223 11.37615 6.7563 8.71365 14.6223 5.11215 14.6223 1.06365 1.0503"></polygon>
                    </g>
                    <path d="M27.8928,33.1367 L3.0003,33.1367 C1.3503,33.1367 0.0003,31.7867 0.0003,30.1367 L0.0003,14.2787 C0.0003,12.6287 1.3503,11.2787 3.0003,11.2787 L27.8928,11.2787 C29.5428,11.2787 30.8928,12.6287 30.8928,14.2787 L30.8928,30.1367 C30.8928,31.7867 29.5428,33.1367 27.8928,33.1367" id="Fill-27" fill-opacity="0.6" fill="#006FFF"></path>
                    <path d="M35.3928,22.64495 L10.5003,22.64495 C8.8503,22.64495 7.5003,21.29495 7.5003,19.64495 L7.5003,3.78695 C7.5003,2.13695 8.8503,0.78695 10.5003,0.78695 L35.3928,0.78695 C37.0428,0.78695 38.3928,2.13695 38.3928,3.78695 L38.3928,19.64495 C38.3928,21.29495 37.0428,22.64495 35.3928,22.64495" id="Fill-29" fill-opacity="0.9" fill="#006FFF"></path>
                    <polygon id="Fill-1" fill="#282323" points="61.1412 3.78785 56.8932 3.78785 56.8932 6.05585 60.7632 6.05585 60.7632 9.04385 56.8932 9.04385 56.8932 14.37185 53.3652 14.37185 53.3652 0.79985 61.1412 0.79985"></polygon>
                </g>
            </g>
        </g>
    </g>
</svg>