<?xml version="1.0" encoding="UTF-8"?>
<svg width="38px" height="38px" viewBox="0 0 38 38" version="1.1" xmlns="http://www.w3.org/2000/svg" xmlns:xlink="http://www.w3.org/1999/xlink">
    <!-- Generator: Sketch 47 (45396) - http://www.bohemiancoding.com/sketch -->
    <title>icon-2</title>
    <desc>Created with Sketch.</desc>
    <defs></defs>
    <g id="Icons" stroke="none" stroke-width="1" fill="none" fill-rule="evenodd">
        <g id="icon-2" fill="#006FFF">
            <rect id="Rectangle" x="0" y="36" width="17.1" height="2" rx="1"></rect>
            <rect id="Rectangle" x="20.9" y="36" width="17.1" height="2" rx="1"></rect>
            <rect id="Rectangle" x="0" y="32" width="17.1" height="2" rx="1"></rect>
            <rect id="Rectangle" x="20.9" y="32" width="17.1" height="2" rx="1"></rect>
            <rect id="Rectangle" x="0" y="28" width="17.1" height="2" rx="1"></rect>
            <rect id="Rectangle" x="20.9" y="28" width="17.1" height="2" rx="1"></rect>
            <rect id="Rectangle" x="0" y="24" width="17.1" height="2" rx="1"></rect>
            <rect id="Rectangle" x="20.9" y="24" width="17.1" height="2" rx="1"></rect>
            <rect id="Rectangle" fill-opacity="0.5" x="20.9" y="20" width="17.1" height="2" rx="1"></rect>
            <rect id="Rectangle" fill-opacity="0.5" x="20.9" y="16" width="17.1" height="2" rx="1"></rect>
            <rect id="Rectangle" fill-opacity="0.5" x="20.9" y="12" width="17.1" height="2" rx="1"></rect>
            <rect id="Rectangle" fill-opacity="0.5" x="20.9" y="8" width="17.1" height="2" rx="1"></rect>
            <rect id="Rectangle" fill-opacity="0.5" x="20.9" y="4" width="17.1" height="2" rx="1"></rect>
            <rect id="Rectangle" fill-opacity="0.5" x="20.9" y="0" width="17.1" height="2" rx="1"></rect>
        </g>
    </g>
</svg>