<?xml version="1.0" encoding="UTF-8"?>
<svg width="34px" height="40px" viewBox="0 0 34 40" version="1.1" xmlns="http://www.w3.org/2000/svg" xmlns:xlink="http://www.w3.org/1999/xlink">
    <!-- Generator: Sketch 49.1 (51147) - http://www.bohemiancoding.com/sketch -->
    <title>icon-3</title>
    <desc>Created with Sketch.</desc>
    <defs></defs>
    <g id="Page-1" stroke="none" stroke-width="1" fill="none" fill-rule="evenodd">
        <g id="icon-3" transform="translate(1.000000, 1.000000)">
            <g id="Group" stroke="#006FFF" stroke-width="2">
                <rect id="Rectangle-2" x="0" y="6" width="26" height="32" rx="2"></rect>
                <path d="M29.4806248,32 L31,32 C31.5522847,32 32,31.5522847 32,31 L32,1 C32,0.44771525 31.5522847,0 31,0 L7,0 C6.44771525,0 6,0.44771525 6,1 L6,2.64921894" id="Rectangle-2"></path>
            </g>
            <rect id="Rectangle-3" fill="#006FFF" fill-rule="nonzero" x="5" y="11" width="12" height="2" rx="1"></rect>
            <rect id="Rectangle-3" fill="#006FFF" fill-rule="nonzero" x="5" y="15" width="16" height="2" rx="1"></rect>
            <rect id="Rectangle-3" fill="#006FFF" fill-rule="nonzero" x="5" y="19" width="16" height="2" rx="1"></rect>
            <rect id="Rectangle-3" fill="#006FFF" fill-rule="nonzero" x="5" y="23" width="9" height="2" rx="1"></rect>
            <rect id="Rectangle-3" fill="#006FFF" fill-rule="nonzero" x="5" y="31" width="6" height="2" rx="1"></rect>
        </g>
    </g>
</svg>